 <svg  version="1.0" xmlns="http://www.w3.org/2000/svg"  width="300.000000pt" height="273.000000pt" viewBox="0 0 300.000000 273.000000"  preserveAspectRatio="xMidYMid meet">  <g transform="translate(0.000000,273.000000) scale(0.100000,-0.100000)" fill="#ff0000" stroke="none"> <path d="M1391 2673 l-73 -4 6 -67 c3 -37 9 -140 12 -229 l7 -163 101 6 c120 8 159 21 186 66 30 49 26 103 -9 139 -16 16 -39 29 -51 29 -21 0 -20 -2 9 -35 44 -50 38 -113 -12 -145 -29 -18 -162 -26 -180 -11 -9 7 -14 36 -15 83 -1 40 -5 121 -8 179 -7 123 -11 119 103 119 52 0 66 -4 92 -26 39 -32 43 -85 9 -121 l-21 -23 26 0 c51 0 74 78 42 140 -28 53 -86 70 -224 63z"/> <path d="M1440 2590 c-38 -38 -17 -120 31 -120 58 0 83 92 34 124 -32 21 -41 20 -65 -4z m58 -22 c19 -19 14 -45 -10 -62 -33 -24 -38 -20 -38 29 0 37 3 45 18 45 10 0 23 -5 30 -12z"/> <path d="M1752 2453 c-18 -81 -32 -162 -32 -180 0 -62 79 -123 158 -123 40 0 93 31 108 64 13 30 74 291 74 320 0 8 -16 16 -39 20 -22 3 -45 8 -53 11 -11 4 -21 -26 -42 -127 -16 -73 -33 -143 -37 -155 -9 -25 -46 -32 -54 -10 -3 6 10 79 28 160 19 81 31 149 28 151 -3 2 -29 7 -57 11 l-50 6 -32 -148z m96 78 c2 -13 -1 -35 -7 -49 -5 -15 -12 -40 -15 -57 -3 -16 -11 -54 -17 -83 -11 -48 -10 -56 8 -80 30 -41 66 -41 90 0 19 31 38 90 47 148 2 14 8 36 14 50 5 14 7 31 5 37 -6 16 25 29 37 17 8 -8 -16 -148 -38 -221 -6 -17 -8 -33 -6 -36 3 -2 -9 -18 -25 -36 -42 -45 -109 -42 -162 8 -24 23 -29 67 -14 125 7 28 18 78 25 110 13 65 29 98 45 93 5 -2 11 -14 13 -26z"/> <path d="M739 2497 l-47 -43 29 -62 c15 -34 32 -62 37 -62 11 0 5 46 -11 78 -8 16 -8 28 -1 40 17 27 33 25 40 -5 8 -36 50 -149 70 -188 8 -16 32 -50 54 -75 43 -48 47 -73 14 -78 -14 -2 -36 15 -74 59 -45 51 -68 68 -147 105 -72 34 -94 49 -91 62 4 22 25 22 68 0 69 -36 76 -20 12 27 l-63 46 -49 -42 c-28 -23 -49 -44 -47 -45 2 -2 61 -32 132 -68 123 -61 133 -69 185 -135 30 -38 58 -69 62 -68 5 1 28 18 52 37 l43 35 -64 77 c-58 70 -67 87 -103 200 -22 68 -40 129 -40 136 0 20 -12 14 -61 -31z"/> <path d="M2134 2293 c-65 -98 -120 -180 -121 -183 -3 -6 98 -73 101 -68 3 4 77 129 84 141 11 22 -40 -17 -65 -48 -16 -19 -34 -35 -41 -35 -30 0 -20 34 37 119 33 50 67 104 76 121 42 81 70 88 136 33 76 -65 83 -85 52 -150 -12 -26 -29 -41 -64 -55 -50 -21 -69 -49 -74 -110 -2 -18 -3 -36 -4 -40 -2 -13 -31 -9 -32 5 -2 17 0 55 5 111 4 41 3 47 -8 35 -11 -12 -46 -130 -46 -157 0 -9 86 -72 99 -72 5 0 11 28 15 63 15 139 15 137 53 137 40 0 76 32 99 87 19 43 12 90 -17 127 -20 25 -122 100 -152 112 -10 3 -53 -53 -133 -173z"/> <path d="M1450 2418 c-48 -52 -4 -153 55 -126 28 13 49 59 42 90 -5 20 -52 58 -71 58 -3 0 -14 -10 -26 -22z m51 -18 c30 -16 26 -68 -7 -80 -14 -6 -27 -10 -30 -10 -2 0 -4 23 -4 50 0 52 7 58 41 40z"/> <path d="M2268 2330 c-31 -24 -53 -74 -43 -97 5 -10 8 -21 7 -24 0 -3 4 -6 11 -6 7 0 19 -4 28 -7 23 -10 89 54 89 86 0 24 -37 68 -57 68 -6 0 -22 -9 -35 -20z m50 -12 c31 -31 -1 -88 -50 -88 -16 0 -28 3 -26 8 10 23 54 92 59 92 3 0 10 -5 17 -12z"/> <path d="M397 2175 c-20 -24 -37 -49 -37 -54 0 -14 85 -147 99 -156 20 -12 11 19 -24 89 -27 53 -33 71 -23 78 21 13 25 10 47 -32 50 -96 69 -117 117 -134 26 -9 58 -16 70 -16 51 0 97 -40 62 -52 -17 -7 -42 -3 -108 15 -33 9 -61 12 -70 7 -17 -10 -24 -7 89 -45 41 -14 82 -25 90 -24 9 0 33 22 53 49 l37 48 -117 27 c-64 14 -121 27 -125 28 -5 2 -33 50 -63 107 -30 57 -56 105 -58 107 -1 1 -19 -17 -39 -42z"/> <path d="M2513 2101 c-54 -25 -129 -95 -154 -143 -52 -103 14 -228 122 -228 37 0 116 35 162 74 l28 23 -52 61 -51 61 -34 -26 c-35 -26 -41 -38 -24 -48 17 -11 11 -24 -15 -31 -27 -7 -55 9 -55 31 0 21 46 71 97 104 68 46 127 39 101 -12 -5 -9 -7 -21 -4 -25 8 -13 95 -56 101 -50 4 4 9 33 12 65 3 47 0 64 -16 91 -45 70 -133 91 -218 53z m145 -31 c34 -21 52 -54 52 -96 0 -35 -29 -31 -36 5 -12 59 -58 78 -119 48 -80 -40 -136 -97 -141 -145 -3 -30 28 -65 62 -70 27 -3 64 22 64 43 0 7 7 18 15 25 12 10 18 8 35 -11 28 -34 21 -51 -30 -76 -58 -30 -109 -30 -145 1 -35 30 -49 95 -30 140 22 51 131 142 180 149 55 8 60 7 93 -13z"/> <path d="M275 2025 c-20 -25 -35 -49 -33 -54 3 -10 340 -280 349 -281 3 0 21 21 39 47 l33 46 -29 24 c-59 49 -129 93 -132 83 -2 -6 22 -34 53 -63 40 -37 55 -57 50 -69 -9 -22 -28 -14 -95 39 -80 64 -81 65 -130 103 -86 67 -90 71 -79 91 8 16 13 17 34 7 14 -6 25 -14 25 -18 0 -11 69 -42 81 -38 6 2 -21 31 -59 66 l-70 62 -37 -45z"/> <path d="M1432 1951 c-26 -19 -43 -41 -47 -60 -9 -44 -22 -46 -29 -7 -5 25 -14 37 -36 46 -27 11 -33 10 -65 -14 l-35 -27 0 30 c0 26 -4 31 -24 31 -47 0 -64 -62 -18 -68 24 -4 25 -27 1 -28 -36 -1 -62 -19 -75 -50 -19 -46 -19 -47 31 -108 25 -31 45 -57 45 -60 0 -2 -21 -11 -47 -21 -54 -21 -120 -83 -148 -140 -14 -28 -20 -64 -22 -123 -1 -52 -7 -89 -15 -99 -7 -9 -17 -26 -23 -39 -5 -13 -29 -36 -52 -51 -23 -15 -71 -56 -106 -91 -67 -64 -116 -92 -165 -92 -29 0 -82 -44 -82 -69 0 -7 12 -28 28 -46 15 -18 35 -42 44 -54 10 -11 29 -21 42 -21 13 0 29 -7 36 -15 7 -8 18 -15 26 -15 25 0 64 23 69 41 4 11 12 16 21 12 18 -7 64 34 64 57 0 9 -14 26 -30 38 -48 36 -42 77 21 149 51 58 109 104 109 85 0 -5 -7 -15 -15 -22 -26 -22 -18 -73 18 -112 27 -30 32 -44 34 -88 3 -82 20 -94 144 -98 l100 -4 34 -46 c19 -26 43 -59 55 -74 l22 -28 -23 0 c-29 0 -83 34 -108 68 -16 21 -22 24 -32 15 -20 -20 -136 -310 -127 -318 7 -7 337 20 345 29 13 13 -14 23 -112 41 l-100 19 23 48 c23 48 24 49 60 42 20 -4 52 -12 69 -20 28 -11 35 -11 48 3 14 13 19 11 55 -28 22 -24 53 -72 70 -107 16 -34 37 -65 45 -68 17 -7 55 22 55 41 0 17 65 83 222 224 140 126 162 151 129 151 -37 0 -243 -124 -323 -194 -28 -24 -61 -50 -75 -57 -23 -12 -27 -12 -37 5 -6 11 -30 38 -53 61 -24 23 -43 47 -43 54 0 7 -4 10 -8 7 -5 -3 -18 8 -30 24 -16 21 -21 42 -21 79 2 47 4 51 25 51 22 0 24 -4 24 -57 0 -32 5 -65 10 -73 7 -11 10 3 9 46 -1 34 1 66 5 72 4 6 24 11 44 12 20 0 97 0 171 0 73 1 146 -2 161 -5 37 -8 73 25 69 63 -2 19 6 36 29 59 30 29 31 34 20 60 -6 15 -18 33 -26 40 -22 18 2 57 28 43 22 -12 70 -13 86 -2 6 4 23 29 39 56 16 26 39 59 52 72 28 28 73 33 73 8 0 -10 6 -14 15 -10 12 4 15 -3 15 -29 0 -26 -6 -39 -25 -51 -30 -19 -55 -12 -55 16 0 13 10 24 27 31 18 6 23 13 16 20 -7 7 -18 6 -35 -2 -20 -9 -30 -25 -43 -73 -9 -33 -21 -65 -25 -71 -9 -11 -10 -15 -10 -45 0 -28 -17 -25 -24 5 -7 28 -28 39 -91 48 l-40 6 35 -14 c19 -8 43 -18 52 -21 10 -3 20 -16 24 -28 11 -35 35 -58 50 -45 9 7 14 5 19 -11 9 -29 -1 -37 -27 -21 -17 10 -19 10 -16 -1 5 -15 43 -23 66 -12 9 4 23 8 31 10 22 4 91 78 91 98 0 10 11 27 25 38 19 15 25 29 25 59 0 34 -4 42 -28 52 -18 8 -26 18 -24 30 2 10 -3 24 -12 30 -27 20 -4 78 41 102 25 14 54 46 90 100 29 44 64 95 79 113 15 18 25 34 23 36 -2 1 -51 9 -109 15 -112 14 -263 38 -293 47 -15 5 -17 1 -11 -38 9 -59 50 -179 80 -231 34 -59 32 -107 -5 -135 -16 -12 -46 -49 -67 -82 -34 -56 -39 -60 -74 -60 l-37 0 -1 47 c0 31 -5 49 -16 55 -20 11 -21 52 -1 68 28 24 8 147 -35 210 -15 22 -60 116 -60 126 0 2 11 -1 25 -6 23 -9 42 0 28 14 -10 10 -72 7 -94 -4 -25 -14 -28 -100 -3 -100 12 0 15 9 13 42 -2 23 1 43 6 44 18 6 107 -191 113 -245 4 -50 3 -52 -40 -96 -40 -40 -50 -45 -90 -45 -24 0 -69 -7 -99 -16 -128 -39 -502 0 -636 66 -73 36 -80 52 -63 134 15 74 68 140 151 188 35 21 75 48 89 60 88 80 131 98 260 105 90 4 99 3 180 -29 99 -39 111 -61 38 -66 -48 -3 -62 -15 -32 -26 34 -13 64 -6 80 19 14 22 18 23 28 10 12 -17 86 -26 83 -10 -1 6 -10 9 -21 7 -10 -1 -25 6 -33 15 -14 17 -14 17 -9 1 3 -10 1 -18 -4 -18 -14 0 -12 12 6 55 21 50 2 73 -20 24 l-15 -34 2 29 c1 18 -4 31 -12 34 -11 4 -13 -2 -8 -27 6 -31 0 -39 -18 -22 -13 12 -173 61 -198 61 -14 0 -17 4 -12 18 13 30 24 112 18 130 -7 20 -43 51 -59 52 -6 0 -29 -13 -52 -29z m82 -7 c22 -21 20 -67 -4 -115 -22 -43 -26 -46 -80 -52 -19 -3 -48 -10 -63 -16 -16 -6 -31 -11 -33 -11 -10 0 65 124 100 166 40 47 56 53 80 28z m-184 -49 c25 -65 7 -132 -47 -174 -31 -25 -39 -20 -47 34 -18 129 -20 118 16 143 42 29 66 28 78 -3z m-120 -124 c11 -37 20 -75 20 -83 0 -20 -26 -42 -39 -33 -22 13 -71 94 -71 116 0 25 36 69 56 69 8 0 22 -30 34 -69z m905 -145 c11 -3 83 -15 159 -26 77 -11 142 -23 144 -25 3 -3 -2 -13 -10 -22 -8 -10 -29 -43 -46 -73 -37 -65 -76 -109 -120 -132 -22 -12 -33 -26 -38 -52 -4 -25 -12 -36 -24 -36 -15 0 -17 6 -13 39 4 31 -1 50 -25 93 -32 57 -65 149 -76 211 -6 34 -5 38 11 34 10 -3 27 -8 38 -11z m-1103 -356 c25 -15 29 -20 16 -25 -28 -11 -53 -1 -56 23 -4 27 -1 27 40 2z m879 -58 c-6 -11 -26 -23 -46 -26 -40 -8 -49 -23 -60 -100 -10 -64 -29 -54 -35 20 -4 46 -8 58 -20 55 -25 -6 -193 -23 -219 -22 -23 1 -101 19 -101 24 0 1 44 3 98 3 53 1 126 8 162 17 36 8 89 18 118 21 32 3 63 13 80 26 28 23 40 14 23 -18z m-821 5 c0 -6 3 -7 7 -4 8 9 32 -24 33 -45 0 -31 23 -68 41 -68 37 0 49 12 49 49 1 30 3 33 13 20 13 -17 24 -18 142 -23 44 -2 92 -8 106 -14 15 -6 29 -9 32 -6 2 2 16 0 30 -5 15 -6 27 -6 29 -1 4 11 127 16 151 5 10 -4 17 -3 17 4 0 6 5 11 10 11 16 0 11 -19 -11 -41 -18 -18 -28 -20 -72 -14 -29 4 -58 11 -66 15 -8 4 -27 4 -43 0 -15 -5 -28 -6 -28 -2 0 4 -20 6 -44 4 -24 -2 -53 1 -64 7 -15 8 -21 7 -25 -3 -6 -15 -107 -20 -107 -5 0 5 -4 9 -10 9 -5 0 -10 -6 -10 -12 0 -9 -20 -14 -58 -16 -44 -2 -63 2 -84 18 -15 11 -34 20 -43 20 -9 0 -15 9 -16 23 -1 16 -2 18 -6 5 -2 -10 -8 -18 -13 -18 -22 0 -40 14 -40 32 0 13 -5 18 -14 15 -14 -6 -36 10 -36 25 0 13 35 23 85 24 25 1 45 -3 45 -9z m198 -22 c45 -8 95 -15 110 -16 25 -1 24 -2 -8 -10 -39 -10 -114 -3 -140 13 -23 15 -52 3 -48 -19 3 -20 -9 -43 -21 -43 -9 0 -26 39 -35 82 -6 25 -5 26 27 17 17 -4 69 -15 115 -24z m655 -12 c4 -21 -15 -64 -36 -82 -8 -6 -29 -16 -45 -20 -25 -8 -31 -6 -35 9 -6 23 16 66 31 63 7 -2 12 2 12 7 0 6 9 10 19 10 10 0 21 7 25 15 7 20 24 19 29 -2z m-1004 -34 c-19 -9 -60 -47 -91 -84 -48 -55 -58 -73 -58 -103 0 -30 6 -42 32 -64 28 -22 31 -30 22 -45 -14 -23 -41 -28 -60 -12 -10 9 -11 15 -3 25 6 7 7 18 3 25 -5 8 -13 4 -25 -12 -22 -29 -24 -39 -5 -39 26 0 30 -23 6 -42 -33 -27 -56 -23 -70 13 -10 24 -11 36 -2 50 18 28 14 34 -8 14 -16 -14 -19 -26 -15 -47 7 -32 -1 -35 -33 -12 -32 22 -28 58 11 88 17 14 27 26 20 26 -6 0 -25 -12 -42 -26 -26 -21 -34 -24 -46 -14 -8 7 -15 18 -15 25 0 23 51 55 87 55 19 0 44 5 56 11 21 11 155 124 168 142 14 20 75 54 88 49 9 -3 2 -11 -20 -23z m1351 2 c12 -24 -1 -66 -25 -75 -30 -11 -82 -6 -95 9 -15 18 -5 35 23 35 25 1 57 22 57 39 0 18 28 13 40 -8z m-140 -36 c0 -23 -5 -35 -14 -35 -12 0 -12 6 -3 35 6 19 12 35 14 35 2 0 3 -16 3 -35z m-1145 -61 c6 -29 45 -39 52 -13 6 21 14 24 29 11 20 -18 92 -34 115 -26 13 5 29 9 34 10 6 0 17 4 25 7 29 13 111 12 109 0 -1 -5 -1 -18 0 -30 1 -26 28 -31 37 -8 7 16 71 18 80 3 3 -4 13 -8 24 -8 10 0 20 -7 24 -15 3 -10 14 -13 33 -10 15 3 38 7 49 8 12 2 29 11 39 20 14 15 28 17 69 12 119 -14 148 -13 165 6 20 25 26 24 39 -7 14 -30 0 -66 -23 -58 -8 4 -15 1 -15 -5 0 -6 -5 -11 -11 -11 -6 0 -8 9 -4 20 8 25 -3 26 -21 3 -11 -16 -16 -16 -34 -5 -12 8 -19 9 -15 3 3 -6 -1 -11 -9 -11 -9 0 -16 7 -16 16 0 8 -5 12 -11 8 -6 -3 -15 0 -20 7 -7 11 -9 10 -9 -3 0 -13 -8 -18 -28 -18 -15 0 -42 -4 -60 -9 -20 -6 -32 -6 -32 0 0 6 -7 6 -19 0 -10 -6 -20 -9 -22 -6 -2 2 -22 6 -44 8 -22 3 -50 8 -62 11 -13 3 -23 0 -23 -6 0 -7 -5 -6 -14 1 -10 9 -16 9 -21 1 -5 -8 -15 -6 -32 5 -14 10 -22 12 -19 6 4 -6 0 -11 -9 -11 -11 0 -15 5 -11 15 3 8 1 15 -4 15 -6 0 -10 -6 -10 -14 0 -9 -7 -12 -20 -9 -11 3 -20 10 -20 15 0 7 -4 7 -13 0 -18 -15 -83 -10 -79 6 1 8 -2 11 -8 7 -5 -3 -10 -12 -10 -20 0 -10 -10 -13 -30 -12 -16 1 -30 8 -30 15 0 15 -12 16 -27 1 -8 -8 -17 -8 -31 0 -15 8 -22 8 -25 -2 -3 -7 -6 -5 -6 6 -1 9 -7 17 -15 17 -13 0 -31 27 -28 43 1 4 -5 7 -13 7 -20 0 -19 29 3 53 17 19 17 19 20 -4 1 -13 5 -34 7 -45z m109 34 c29 -15 56 -20 110 -20 l71 1 -64 -14 c-61 -14 -66 -13 -124 10 -33 14 -62 25 -64 25 -2 0 -3 -11 -3 -25 0 -31 -16 -33 -24 -2 -12 46 -8 54 27 50 17 -3 49 -14 71 -25z m561 -25 c53 -3 83 -10 88 -19 11 -19 56 -18 63 1 4 9 19 15 42 15 35 0 35 0 16 -21 -17 -20 -26 -21 -99 -14 -118 10 -146 10 -153 -2 -8 -12 -77 -24 -86 -15 -12 11 -81 32 -107 32 -15 0 -33 -7 -40 -17 -13 -14 -15 -13 -19 13 -4 22 -12 30 -35 36 -30 7 175 1 330 -9z m535 -9 c31 -5 37 -10 33 -25 -7 -27 -78 -27 -93 0 -15 29 -12 44 6 37 9 -3 33 -9 54 -12z m-35 -60 c28 -7 29 -21 2 -38 -13 -8 -20 -8 -25 0 -4 6 -15 13 -24 17 -12 4 -18 17 -18 40 0 46 11 53 26 18 8 -19 23 -33 39 -37z m-995 -49 c52 -4 173 -9 268 -11 96 -2 177 -6 181 -8 3 -2 26 0 51 4 25 5 80 6 123 3 l78 -6 -3 -31 -3 -31 -160 -3 c-88 -2 -185 -4 -215 -4 -30 -1 -87 1 -127 5 -65 6 -73 5 -83 -12 -12 -23 10 -51 171 -219 114 -119 108 -118 205 -36 96 82 294 210 294 190 0 -1 -71 -67 -159 -144 -108 -97 -166 -156 -182 -187 -13 -25 -27 -45 -30 -45 -3 0 -16 24 -30 53 -13 28 -50 78 -81 109 -31 31 -82 90 -112 130 -105 140 -90 129 -191 135 -131 6 -133 7 -145 54 -15 54 -8 70 27 64 15 -2 71 -7 123 -10z m185 -107 c2 -7 6 -31 10 -53 l7 -40 -36 40 c-42 48 -45 65 -11 65 14 0 27 -6 30 -12z m-114 -140 c28 -22 55 -34 87 -38 40 -4 48 -9 50 -29 4 -22 2 -23 -40 -15 -24 4 -59 8 -78 9 -31 0 -37 -5 -62 -50 -15 -27 -28 -55 -28 -61 0 -6 26 -14 58 -18 31 -3 77 -10 102 -14 39 -8 42 -9 20 -15 -19 -5 -260 -15 -260 -11 0 0 17 41 38 90 21 49 44 110 51 137 8 26 16 47 18 47 2 0 22 -14 44 -32z"/> <path d="M1457 1872 c-18 -19 -40 -72 -33 -79 2 -3 12 9 21 26 8 17 22 31 29 31 15 0 28 24 19 34 -10 10 -19 7 -36 -12z"/> <path d="M2150 1418 c0 -9 11 -14 33 -14 17 0 44 -3 60 -7 21 -6 27 -4 27 8 0 11 -11 15 -44 15 -24 0 -51 3 -60 6 -10 4 -16 1 -16 -8z"/> <path d="M110 1708 c-52 -114 -1 -222 135 -284 126 -58 246 -30 294 68 35 73 30 89 -40 120 l-60 27 7 -34 c5 -28 2 -38 -20 -59 -29 -30 -66 -33 -122 -10 -89 36 -120 102 -69 146 l25 22 -57 23 c-31 13 -60 23 -65 23 -5 0 -18 -19 -28 -42z m71 -60 c-3 -62 21 -97 92 -132 87 -42 156 -33 190 25 11 19 23 29 34 27 47 -9 8 -97 -54 -124 -42 -17 -147 -14 -166 5 -6 6 -17 11 -25 11 -23 0 -91 59 -106 93 -29 63 -16 152 21 145 14 -3 17 -12 14 -50z"/> <path d="M2750 1700 c-63 -27 -149 -60 -190 -75 -41 -15 -77 -29 -78 -30 -2 -2 14 -49 35 -104 29 -79 41 -100 53 -95 8 4 30 12 48 18 36 12 38 19 17 56 -22 38 -18 57 14 68 29 10 30 9 42 -26 6 -20 13 -40 15 -44 3 -5 75 17 92 28 2 1 -4 19 -12 39 -21 49 -21 49 14 62 29 11 29 10 45 -38 9 -27 18 -49 20 -49 1 0 23 9 47 20 l45 20 -33 81 c-18 45 -35 90 -37 100 -3 11 -9 18 -14 18 -4 -1 -60 -23 -123 -49z m112 -17 c10 -9 18 -22 18 -30 0 -8 7 -27 15 -43 22 -43 -2 -51 -35 -12 -29 35 -45 38 -85 20 -26 -12 -29 -21 -26 -78 l3 -35 -34 33 c-43 40 -79 42 -108 5 -16 -21 -20 -35 -15 -60 9 -47 -15 -43 -39 7 -37 78 -35 83 62 120 48 18 101 39 119 46 17 8 37 14 45 14 8 0 23 7 34 15 24 18 24 18 46 -2z"/> <path d="M1497 1587 c-15 -29 -27 -56 -27 -61 0 -5 -11 -24 -25 -42 -14 -18 -25 -37 -25 -42 0 -5 -7 -15 -15 -22 -19 -15 -19 -30 -1 -30 9 0 13 -18 14 -66 1 -37 4 -69 7 -72 12 -12 55 19 62 45 l7 28 6 -30 c8 -43 39 -40 61 5 42 89 72 180 77 239 5 62 4 63 -16 52 -11 -6 -30 -23 -41 -37 l-21 -27 0 39 c-1 34 -18 74 -32 74 -3 0 -17 -24 -31 -53z m43 -41 c0 -60 -12 -114 -28 -126 -4 -3 -13 -27 -20 -55 -7 -27 -20 -61 -29 -75 l-17 -25 -9 35 c-5 19 -6 55 -3 80 3 25 6 52 7 60 1 8 10 27 20 42 11 14 19 30 19 34 0 16 42 94 51 94 5 0 9 -29 9 -64z m86 -18 c-13 -82 -84 -248 -106 -248 -15 0 -12 55 6 111 21 64 39 76 29 19 -5 -27 -4 -40 3 -36 15 9 22 59 10 74 -16 19 30 122 55 122 6 0 7 -16 3 -42z"/> <path d="M1448 1405 c-5 -25 3 -40 16 -28 9 10 7 53 -3 53 -5 0 -11 -11 -13 -25z"/> <path d="M1650 1611 c0 -16 38 -23 59 -12 28 15 31 14 31 -13 0 -36 -10 -55 -26 -49 -10 4 -14 -3 -14 -23 0 -39 -18 -99 -46 -158 -26 -54 -31 -77 -12 -58 11 11 15 21 61 147 16 43 32 71 42 73 14 3 15 11 10 45 -4 23 -9 45 -12 50 -6 10 -93 9 -93 -2z"/> <path d="M1349 1588 c0 -2 -2 -21 -4 -43 -2 -22 -10 -80 -18 -130 -15 -91 -14 -105 5 -105 6 0 8 10 4 26 -8 31 10 138 31 177 15 30 11 77 -7 77 -6 0 -10 -1 -11 -2z"/> <path d="M1420 1565 c0 -8 -4 -23 -10 -33 -34 -62 -62 -223 -41 -237 17 -10 25 1 16 22 -10 24 -8 53 12 136 8 38 22 71 29 74 16 6 19 53 4 53 -5 0 -10 -7 -10 -15z"/> <path d="M1650 1510 c0 -21 -9 -64 -21 -95 -12 -31 -19 -59 -16 -61 8 -8 47 104 54 152 4 30 2 44 -6 44 -6 0 -11 -17 -11 -40z"/> <path d="M1586 1316 c-17 -27 -21 -46 -8 -46 9 0 36 59 29 66 -2 2 -12 -7 -21 -20z"/> <path d="M2530 1318 c0 -9 -3 -36 -6 -62 l-7 -46 89 0 c83 0 87 1 62 14 -16 8 -45 17 -65 21 -44 7 -45 8 -37 28 6 16 42 16 269 -2 91 -7 92 -7 80 -99 -13 -108 -96 -145 -179 -82 -45 34 -73 37 -122 14 -38 -18 -73 -12 -55 9 6 8 30 20 53 27 24 8 45 17 48 20 3 4 14 12 25 18 20 11 20 11 0 11 -18 1 -165 -35 -171 -41 -2 -3 -7 -106 -5 -120 1 -3 41 10 89 31 l88 38 30 -35 c54 -63 161 -52 210 23 14 22 42 202 32 210 -2 1 -77 8 -168 14 -91 7 -186 14 -212 18 -39 4 -48 3 -48 -9z"/> <path d="M30 1245 l0 -65 172 -2 c160 -3 173 -4 176 -22 2 -10 -2 -22 -10 -27 -7 -5 -86 -9 -175 -9 l-163 0 0 -60 0 -60 178 0 c153 0 182 3 211 18 93 50 96 209 4 269 -23 15 -53 18 -210 20 l-183 3 0 -65z m378 9 c33 -23 49 -64 45 -109 -3 -22 -8 -42 -11 -45 -4 -3 -12 -14 -18 -25 -21 -38 -52 -45 -194 -44 -146 2 -160 4 -160 25 0 26 40 34 165 34 120 0 127 1 150 25 14 13 25 32 25 41 0 15 -34 53 -49 55 -3 0 -67 3 -141 5 -74 3 -139 9 -144 14 -5 5 -6 16 -3 24 9 23 302 24 335 0z"/> <path d="M2765 1220 c-30 -11 -45 -33 -39 -56 7 -27 52 -57 84 -57 31 0 70 34 70 61 0 39 -69 71 -115 52z m93 -36 c2 -1 -1 -12 -8 -23 -7 -15 -20 -21 -43 -21 -37 0 -57 15 -57 42 0 15 7 16 53 11 28 -3 53 -7 55 -9z"/> <path d="M2472 948 c-48 -61 -56 -152 -18 -203 54 -70 137 -83 222 -35 56 31 84 31 84 -1 0 -23 -34 -59 -55 -59 -33 0 -12 -16 47 -37 73 -25 81 -22 111 46 23 53 17 98 -20 141 -56 68 -125 77 -215 30 -51 -27 -58 -29 -72 -14 -9 8 -16 20 -16 25 0 16 48 59 65 59 33 0 12 16 -47 38 -74 26 -73 26 -86 10z m58 -45 c0 -4 -5 -21 -12 -40 -11 -29 -10 -35 12 -58 30 -32 59 -32 126 0 59 28 86 26 141 -7 24 -14 33 -28 38 -57 7 -45 -16 -101 -42 -101 -13 0 -14 7 -9 38 5 32 2 42 -17 59 -38 34 -44 34 -109 3 -69 -34 -100 -34 -148 0 -47 33 -61 115 -27 158 10 13 47 17 47 5z"/> <path d="M433 928 l-51 -20 19 -45 c11 -25 18 -47 17 -48 -2 -2 -79 -29 -173 -60 -93 -32 -173 -61 -177 -64 -4 -4 2 -32 14 -64 15 -41 26 -57 37 -55 9 2 114 37 234 78 168 58 217 78 213 90 -22 71 -72 209 -76 209 -3 -1 -28 -10 -57 -21z m57 -57 c0 -10 7 -39 16 -65 11 -31 13 -51 7 -57 -13 -13 -307 -117 -354 -125 -29 -5 -37 -3 -43 11 -10 27 8 40 92 69 222 78 232 84 232 149 0 18 3 36 6 39 11 11 44 -5 44 -21z"/> <path d="M469 624 c-10 -12 -10 -22 -1 -48 16 -42 15 -56 -2 -56 -15 0 -29 25 -30 52 -2 32 -21 19 -21 -13 0 -43 42 -77 74 -60 23 13 27 41 10 72 -6 12 -8 27 -5 36 9 22 36 -2 36 -33 0 -33 18 -40 26 -9 13 54 -53 100 -87 59z"/> <path d="M2401 594 c-28 -36 -27 -70 3 -89 27 -18 48 -12 80 24 23 26 46 27 46 3 0 -23 -19 -42 -41 -42 -22 0 -33 -29 -14 -36 21 -8 64 22 77 54 11 26 12 26 15 5 7 -35 52 -66 88 -59 85 17 86 130 0 152 -30 7 -75 -18 -82 -47 -5 -17 -7 -17 -25 6 -25 32 -40 31 -81 -5 -39 -34 -57 -38 -57 -12 0 23 19 42 42 42 10 0 18 7 18 15 0 25 -46 18 -69 -11z m277 -20 c42 -29 18 -104 -34 -104 -27 0 -64 36 -64 62 0 23 35 58 58 58 10 0 28 -7 40 -16z"/> <path d="M2626 545 c19 -14 19 -15 -3 -21 -13 -3 -23 -11 -23 -16 0 -6 7 -7 16 -4 9 4 23 1 30 -5 17 -14 44 5 44 31 0 20 -19 30 -58 30 -25 0 -25 -1 -6 -15z"/> <path d="M542 499 c-28 -28 -52 -55 -52 -60 0 -20 30 -7 60 27 42 48 48 38 9 -14 -17 -24 -28 -49 -25 -57 4 -13 14 -10 53 14 26 16 49 28 51 26 2 -2 -14 -19 -35 -38 -26 -25 -35 -39 -28 -46 8 -8 27 5 63 42 45 46 50 55 40 70 -12 15 -17 14 -60 -13 -27 -17 -50 -30 -53 -30 -3 0 8 20 25 44 33 50 36 59 17 74 -9 8 -26 -2 -65 -39z"/> <path d="M2277 462 l-37 -38 59 -63 c34 -37 63 -61 70 -57 17 11 13 26 -11 46 -22 18 -23 18 -4 39 24 26 34 26 61 1 20 -18 23 -19 35 -5 10 12 8 18 -11 35 -13 10 -32 19 -42 20 -10 0 -15 4 -12 10 3 5 1 19 -5 30 -18 33 -60 26 -103 -18z m80 -7 c6 -18 -23 -55 -44 -55 -22 0 -27 29 -8 50 22 24 43 26 52 5z"/> <path d="M663 368 c-63 -42 -73 -64 -24 -53 31 7 57 -15 48 -39 -6 -16 18 -42 26 -29 2 4 14 39 27 77 19 57 20 70 9 77 -19 12 -16 13 -86 -33z m55 -23 c-12 -27 -23 -31 -34 -13 -4 6 1 17 11 25 28 20 36 16 23 -12z"/> <path d="M2158 359 l-47 -31 46 -69 c25 -38 48 -69 50 -69 3 0 26 15 51 32 26 18 49 34 51 36 3 1 0 7 -7 14 -8 8 -20 4 -47 -16 -35 -27 -37 -27 -50 -10 -13 17 -12 21 3 31 47 33 51 38 43 51 -6 10 -15 7 -40 -14 -27 -22 -34 -25 -42 -13 -13 21 -12 22 27 47 19 12 32 27 29 32 -9 15 -16 13 -67 -21z"/> <path d="M779 309 c-9 -18 -6 -26 20 -53 37 -39 38 -46 6 -46 -18 0 -26 7 -31 25 -7 27 -34 35 -34 10 0 -22 45 -65 69 -65 20 0 51 24 51 40 0 5 -14 25 -30 44 -17 19 -26 37 -21 40 15 10 39 -4 44 -25 7 -24 27 -25 27 -1 0 47 -79 71 -101 31z"/> <path d="M895 215 c-25 -59 -26 -85 -5 -85 5 0 11 14 15 30 6 26 10 30 28 24 33 -10 43 -22 29 -36 -16 -16 -15 -48 1 -48 6 0 22 26 35 58 30 75 30 75 10 80 -12 2 -18 -3 -18 -16 0 -27 -9 -32 -36 -20 -14 7 -22 17 -19 25 3 7 8 19 11 27 3 7 -1 16 -9 19 -10 4 -22 -13 -42 -58z"/> <path d="M2013 268 c-34 -17 -47 -59 -30 -99 17 -40 33 -55 69 -64 22 -6 33 -1 56 22 16 16 34 27 41 25 17 -6 13 13 -10 52 l-20 34 -29 -16 c-31 -17 -40 -42 -17 -42 7 0 18 5 25 12 9 9 12 8 12 -8 0 -43 -53 -60 -83 -26 -34 37 -12 101 30 88 10 -3 25 -1 33 4 13 9 13 11 0 20 -19 12 -49 12 -77 -2z"/> <path d="M1030 162 c-14 -37 -26 -70 -28 -74 -2 -4 9 -10 25 -14 15 -4 40 -13 55 -20 22 -12 27 -11 32 2 5 13 -27 34 -54 34 -14 0 -21 17 -14 33 5 13 10 14 39 1 42 -17 45 -17 45 0 0 8 -13 17 -30 21 -34 7 -47 22 -32 37 6 6 22 4 45 -5 30 -13 36 -13 41 -1 3 8 3 14 1 14 -2 0 -26 9 -53 19 l-48 19 -24 -66z"/> <path d="M1905 214 c-5 -2 -29 -8 -51 -14 l-42 -10 22 -80 c17 -64 25 -80 40 -80 15 0 17 5 11 27 -3 15 -7 32 -8 38 -1 5 12 11 30 13 26 3 32 -1 35 -20 2 -15 11 -24 26 -26 12 -2 22 -1 22 3 0 15 -31 65 -41 65 -6 0 -6 7 1 20 17 31 -13 74 -45 64z m20 -63 c-16 -16 -65 -24 -66 -12 -5 31 -2 36 21 42 28 7 61 -15 45 -30z"/> <path d="M1177 167 c-3 -12 -9 -48 -12 -79 l-7 -56 48 -8 c44 -6 50 -5 71 20 16 18 23 40 23 66 0 45 -21 64 -82 73 -31 5 -37 2 -41 -16z m91 -50 c5 -40 -14 -67 -47 -67 -28 0 -29 1 -24 43 7 64 9 66 40 58 20 -5 29 -14 31 -34z"/> <path d="M1747 148 c2 -24 6 -51 8 -61 6 -30 -5 -47 -30 -47 -26 0 -30 9 -40 88 -6 42 -11 52 -23 50 -19 -4 -19 -51 -1 -120 11 -42 43 -58 87 -42 39 14 45 34 38 107 -6 56 -11 67 -26 67 -15 0 -17 -6 -13 -42z"/> <path d="M1465 160 c-3 -5 -3 -43 1 -85 l7 -75 46 0 c76 0 112 40 74 82 -9 11 -11 18 -5 18 17 0 15 36 -4 54 -17 18 -109 22 -119 6z m100 -40 c0 -10 -12 -16 -32 -18 -28 -3 -33 0 -33 18 0 18 5 21 33 18 20 -2 32 -8 32 -18z m5 -69 c0 -20 -18 -31 -51 -31 -14 0 -19 7 -19 25 0 22 4 25 35 25 28 0 35 -4 35 -19z"/> </g> </svg> 